
<svg width="151px" height="104px" viewBox="0 0 151 104" version="1.1" xmlns="http://www.w3.org/2000/svg" xmlns:xlink="http://www.w3.org/1999/xlink">
    <g id="Web" stroke="none" stroke-width="1" fill="none" fill-rule="evenodd">
        <g id="Sign" transform="translate(-651.000000, -276.000000)" fill="#EE4D64">
            <g id="Group-7" transform="translate(540.000000, 226.000000)">
                <g id="Group-2" transform="translate(110.000000, 50.000000)">
                    <text id="-GYMPOINT" font-family="Helvetica" font-size="29.8606939" font-weight="normal">
                        <tspan x="0" y="101">GYMPOINT</tspan>
                    </text>
                    <g id="noun_Gym_1617325" transform="translate(16.000000, 0.000000)" fill-rule="nonzero">
                        <g id="Group" transform="translate(0.606528, 0.000000)">
                            <path d="M107.31722,12.9407116 C106.04988,12.9407116 104.849022,13.2143787 103.777243,13.7022839 C103.510075,9.66624453 99.9513029,6.45971729 95.6129284,6.45971729 C94.3432587,6.45971729 93.1403811,6.73426481 92.0670489,7.22393081 C91.7624462,3.22222825 88.220916,0.0535595114 83.9086369,0.0535595114 C79.3970692,0.0535595114 75.7266148,3.52098761 75.7266148,7.78315081 L75.7266148,20.5956131 C75.7266148,21.8111939 76.7698129,22.7966889 78.0565689,22.7966889 C79.3433249,22.7966889 80.386523,21.8111939 80.386523,20.5956131 L80.386523,7.78315081 C80.386523,5.94833401 81.9665425,4.45571113 83.9086369,4.45571113 C85.8508867,4.45571113 87.4309062,5.94833401 87.4309062,7.78315081 L87.4309062,43.0386625 L87.4309062,49.4448203 C87.4309062,51.2796371 85.8508867,52.77226 83.9086369,52.77226 C81.9665425,52.77226 80.386523,51.2796371 80.386523,49.4448203 L80.386523,36.632358 C80.386523,35.4167772 79.3433249,34.4312822 78.0565689,34.4312822 L46.6312353,34.4312822 C45.3444793,34.4312822 44.3012812,35.4167772 44.3012812,36.632358 C44.3012812,37.8479388 45.3444793,38.8334338 46.6312353,38.8334338 L75.7266148,38.8334338 L75.7266148,49.4448203 C75.7266148,53.7069835 79.3970692,57.1744116 83.9086369,57.1744116 C88.2210713,57.1744116 91.7626015,54.0057429 92.0670489,50.0040403 C93.1403811,50.4937063 94.3432587,50.7682538 95.6129284,50.7682538 C99.9513029,50.7682538 103.510075,47.5614331 103.777243,43.5256872 C104.849022,44.0135924 106.04988,44.2872595 107.31722,44.2872595 C111.828788,44.2872595 115.499397,40.8198314 115.499397,36.5578149 L115.499397,20.6700095 C115.499397,16.407993 111.828788,12.9407116 107.31722,12.9407116 Z M99.135353,43.0386625 C99.135353,44.8734793 97.5553334,46.3661022 95.6130837,46.3661022 C93.670834,46.3661022 92.0908144,44.8734793 92.0908144,43.0386625 L92.0908144,14.1893086 C92.0908144,12.3544918 93.670834,10.8618689 95.6130837,10.8618689 C97.5553334,10.8618689 99.135353,12.3544918 99.135353,14.1893086 L99.135353,43.0386625 Z M110.839489,36.5578149 C110.839489,38.392485 109.259314,39.8851078 107.31722,39.8851078 C105.375125,39.8851078 103.795106,38.392485 103.795106,36.5578149 L103.795106,20.6700095 C103.795106,18.8354862 105.375125,17.3428633 107.31722,17.3428633 C109.259314,17.3428633 110.839489,18.8354862 110.839489,20.6700095 L110.839489,36.5578149 Z" id="Shape"></path>
                            <path d="M37.5091544,34.4312822 C36.2223984,34.4312822 35.1792003,35.4167772 35.1792003,36.632358 L35.1792003,49.4448203 C35.1792003,51.2796371 33.5991807,52.77226 31.656931,52.77226 C29.7146813,52.77226 28.1346617,51.2796371 28.1346617,49.4448203 L28.1346617,43.0386625 L28.1346617,14.1893086 L28.1346617,7.78315081 C28.1346617,5.94833401 29.7146813,4.45571113 31.656931,4.45571113 C33.5991807,4.45571113 35.1792003,5.94833401 35.1792003,7.78315081 L35.1792003,20.5956131 C35.1792003,21.8111939 36.2223984,22.7966889 37.5091544,22.7966889 L68.9346433,22.7966889 C70.2213993,22.7966889 71.2645974,21.8111939 71.2645974,20.5956131 C71.2645974,19.3800323 70.2213993,18.3945373 68.9346433,18.3945373 L39.8391085,18.3945373 L39.8391085,7.78315081 C39.8391085,3.52098761 36.1686541,0.0535595114 31.656931,0.0535595114 C27.3444966,0.0535595114 23.8031217,3.22222825 23.4985191,7.22393081 C22.4251869,6.73426481 21.2221539,6.45971729 19.9524843,6.45971729 C15.6141097,6.45971729 12.0553378,9.66653801 11.7881698,13.7022839 C10.7163909,13.2143787 9.51553254,12.9407116 8.24819284,12.9407116 C3.73646972,12.9407116 0.0660153661,16.4081397 0.0660153661,20.6703029 L0.0660153661,36.5578149 C0.0660153661,40.8198314 3.73646972,44.2871127 8.24819284,44.2871127 C9.51553254,44.2871127 10.7163909,44.0134456 11.7881698,43.5255405 C12.0553378,47.5615798 15.6141097,50.7681071 19.9524843,50.7681071 C21.2221539,50.7681071 22.4250315,50.4935595 23.4985191,50.0038935 C23.8031217,54.0055961 27.3444966,57.1742649 31.656931,57.1742649 C36.1686541,57.1742649 39.8391085,53.7068368 39.8391085,49.4446736 L39.8391085,36.6322113 C39.8391085,35.4166305 38.7960657,34.4312822 37.5091544,34.4312822 Z M8.2485035,39.8851078 C6.30640909,39.8851078 4.72623422,38.392485 4.72623422,36.5579616 L4.72623422,20.6703029 C4.72623422,18.8354862 6.30625376,17.3428633 8.2485035,17.3428633 C10.1905979,17.3428633 11.7706174,18.8354862 11.7706174,20.6703029 L11.7706174,36.5578149 C11.7704621,38.392485 10.1904426,39.8851078 8.2485035,39.8851078 Z M19.9526396,46.3661022 C18.0105452,46.3661022 16.4303703,44.8734793 16.4303703,43.0386625 L16.4303703,14.1893086 C16.4303703,12.3544918 18.0103898,10.8618689 19.9526396,10.8618689 C21.8948893,10.8618689 23.4749089,12.3544918 23.4749089,14.1893086 L23.4749089,43.0386625 C23.4749089,44.8734793 21.8948893,46.3661022 19.9526396,46.3661022 Z" id="Shape"></path>
                            <path d="M35.1725211,28.7425284 L35.1725211,29.4804757 C35.1725211,30.6960565 36.2157192,31.6815515 37.5024752,31.6815515 C38.7892312,31.6815515 39.8324293,30.6960565 39.8324293,29.4804757 L39.8324293,28.7425284 C39.8324293,27.5269476 38.7892312,26.5414526 37.5024752,26.5414526 C36.2157192,26.5414526 35.1725211,27.5269476 35.1725211,28.7425284 Z" id="Path"></path>
                            <path d="M80.3866783,28.4977687 L80.3866783,27.7598214 C80.3866783,26.5442406 79.3433249,25.5587456 78.0567242,25.5587456 C76.7698129,25.5587456 75.7267701,26.5442406 75.7267701,27.7598214 L75.7267701,28.4977687 C75.7267701,29.7133495 76.7698129,30.6988446 78.0567242,30.6988446 C79.3434802,30.6988446 80.3866783,29.7133495 80.3866783,28.4977687 Z" id="Path"></path>
                        </g>
                    </g>
                </g>
            </g>
        </g>
    </g>
</svg>
